<svg height="1024" viewBox="0 0 1280 1024" width="1280" xmlns="http://www.w3.org/2000/svg" xmlns:xlink="http://www.w3.org/1999/xlink"><linearGradient id="a" gradientTransform="matrix(401.46924 0 0 -401.46924 399.26514 400)" gradientUnits="userSpaceOnUse" x1="0" x2="1" y1="0" y2="0"><stop offset="0" stop-color="#6ac9ca"/><stop offset="1" stop-color="#79c259"/></linearGradient><path d="m.00002525.0000242h1280.0307195v1024.0245756h-1280.0307195z" fill="#fff"/><path d="m553.455 589.147-134.957-77.916c-10.964-6.33-19.233-20.652-19.233-33.314v-155.834c0-12.66 8.269-26.982 19.233-33.313l134.957-77.918c5.283-3.05 12.113-4.73 19.234-4.73 7.12 0 13.951 1.68 19.233 4.73l134.957 77.918c10.964 6.333 19.234 20.654 19.234 33.313v135.807l49.565 28.196 5.056 2.876v5.817 32.262 17.193l-14.944-8.502-203.812-115.939-.028-.016-.028-.015c-2.223-1.284-5.675-2.05-9.233-2.05-3.559 0-7.011.766-9.234 2.05l-52.331 30.212-15 8.66v-17.321-32.261-5.774l5.001-2.886 52.33-30.213c5.283-3.05 12.113-4.73 19.234-4.73 7.102 0 13.916 1.671 19.192 4.707l106.291 60.463v-92.405c0-5.48-4.487-13.253-9.235-15.993l-107.015-61.786c-2.223-1.284-5.675-2.05-9.233-2.05-3.559 0-7.011.766-9.234 2.05l-107.016 61.786c-4.746 2.74-9.233 10.513-9.233 15.993v123.572c0 5.481 4.487 13.253 9.233 15.993l107.016 61.785c2.223 1.284 5.675 2.051 9.234 2.051 3.558 0 7.01-.767 9.233-2.051l83.724-48.337 5.011-2.892 5.005 2.901 27.883 16.164 14.954 8.669-14.97 8.643-111.607 64.435c-5.282 3.05-12.112 4.731-19.233 4.731-7.121 0-13.951-1.681-19.234-4.731" fill="url(#a)" transform="matrix(1.4572657422 0 0 -1.4572657422 -177.23426868713 961.00770288)"/><path d="m15.25 0h-9.65v-48.35q0-1.01.37-1.9.38-.89 1.03-1.55.64-.67 1.54-1.04.89-.37 1.92-.37h36.63q3.23 0 5.46 1.16 2.22 1.17 3.62 2.94 1.39 1.76 2 3.8.61 2.04.61 3.82v6.16q0 3.3-.82 5.9-.81 2.6-2.2 4.59-1.39 1.98-3.21 3.39-1.82 1.41-3.81 2.32-1.98.91-4 1.32-2.03.41-3.81.41l20.15 17.4h-14.92l-20.11-17.4h-6.94v-9.65h21.82q1.82-.15 3.32-.76 1.51-.62 2.6-1.65 1.1-1.04 1.69-2.51.59-1.47.59-3.36v-6.08q0-.82-.2-1.25-.21-.42-.52-.63-.32-.2-.67-.24-.35-.04-.65-.04h-31.84zm50.92-13.29v-13.54q0-2 .7-4.32.71-2.32 2.28-4.31 1.58-1.98 4.12-3.32 2.54-1.34 6.18-1.34h17.41q2 0 4.32.71 2.32.7 4.3 2.28 1.99 1.58 3.32 4.12 1.34 2.54 1.34 6.18 0 2-.7 4.32-.71 2.32-2.29 4.31-1.57 1.98-4.12 3.32-2.54 1.34-6.17 1.34h-17.41v-9.17h17.41q1.96 0 3.04-1.21 1.07-1.2 1.07-2.98 0-1.9-1.2-2.97-1.21-1.08-2.91-1.08h-17.41q-1.97 0-3.04 1.21-1.08 1.2-1.08 2.98v13.47q0 1.93 1.21 3.01 1.2 1.08 2.99 1.08h17.33v9.2h-17.41q-2 0-4.32-.71-2.32-.7-4.31-2.28-1.98-1.57-3.32-4.12-1.33-2.54-1.33-6.18zm50.46 8.58v-35.41h9.65v30.17q3.53 0 6.78-1.52 3.24-1.52 6.14-4.02 2.89-2.51 5.36-5.7 2.47-3.19 4.4-6.55 1.93-3.36 3.28-6.59 1.36-3.22 2.02-5.79h10.25q-1.64 5.09-3.83 10.02-2.19 4.94-5.02 9.41-2.84 4.47-6.35 8.28-3.51 3.8-7.76 6.57-4.25 2.76-9.24 4.34-4.99 1.57-10.81 1.57-1.01 0-1.9-.37-.89-.37-1.56-1.02-.66-.65-1.03-1.52-.38-.87-.38-1.87zm61.12 4.71h-9.64v-40.12h9.64zm0-48.35h-9.64v-8.72h9.64zm8.43 35.06v-13.54q0-2 .7-4.32.71-2.32 2.29-4.31 1.57-1.98 4.11-3.32 2.55-1.34 6.18-1.34h17.41q2 0 4.32.71 2.32.7 4.31 2.28 1.98 1.58 3.32 4.12 1.33 2.54 1.33 6.18 0 2-.7 4.32-.71 2.32-2.28 4.31-1.58 1.98-4.12 3.32-2.55 1.34-6.18 1.34h-17.41v-9.17h17.41q1.96 0 3.04-1.21 1.08-1.2 1.08-2.98 0-1.9-1.21-2.97-1.21-1.08-2.91-1.08h-17.41q-1.96 0-3.04 1.21-1.08 1.2-1.08 2.98v13.47q0 1.93 1.21 3.01 1.21 1.08 2.99 1.08h17.33v9.2h-17.41q-2 0-4.32-.71-2.32-.7-4.31-2.28-1.98-1.57-3.32-4.12-1.33-2.54-1.33-6.18zm50.47 8.43v-35.26h9.64v22.86l19.23-21.48q1.04-1.04 2.45-1.34.44-.07.92-.07.97 0 1.9.41 1.37.55 2.17 1.76.8 1.2.8 2.65v22.94q3.11-3.01 5.64-6.35 2.52-3.34 4.69-6.88 2.17-3.55 4.08-7.2 1.91-3.66 3.73-7.3h10.8q-2.3 5.16-4.97 10.15-2.67 5-5.59 9.45-2.91 4.45-5.95 8.22-3.05 3.76-6.03 6.49-2.99 2.73-5.83 4.27-2.84 1.54-5.36 1.54-1.04 0-1.93-.37-.89-.37-1.56-1.02-.67-.65-1.04-1.54-.37-.89-.37-1.93v-18l-19.15 21.41q-.74.74-1.61 1.1-.87.35-1.8.35-1 0-1.88-.37-.87-.37-1.54-1.02-.66-.65-1.05-1.54-.39-.89-.39-1.93zm79.19 4.86h-9.65v-40.12h9.65zm0-48.35h-9.65v-8.72h9.65zm8.79 34.81v-13.07q0-3.71 1.36-6.29 1.35-2.58 3.37-4.19 2.03-1.62 4.4-2.32 2.38-.71 4.38-.71h17.4v9.65h-17.33q-1.92 0-2.93.99-1 .98-1 2.87v12.99q0 1.97.98 2.97.99 1 2.88 1h17.4q1.97 0 2.94-1 .96-1 .96-2.89v-43.53h9.65v43.53q0 2.48-.63 4.47-.63 1.98-1.67 3.49-1.04 1.5-2.41 2.56-1.38 1.05-2.88 1.72-1.5.67-3.04.98-1.54.32-2.92.32h-17.4q-2.49 0-4.45-.63-1.97-.63-3.47-1.69-1.51-1.06-2.56-2.43-1.06-1.37-1.73-2.88-.67-1.5-.98-3.04-.32-1.54-.32-2.87zm52.85 0v-13.07q0-1.37.31-2.89.32-1.52.99-3.03.66-1.5 1.72-2.87 1.06-1.38 2.56-2.41 1.5-1.04 3.47-1.67 1.97-.64 4.45-.64h17.41q1.37 0 2.91.32 1.54.32 3.04.98 1.51.67 2.88 1.73 1.37 1.06 2.41 2.56 1.04 1.5 1.67 3.47.63 1.97.63 4.45v30.47q0 2.49-.63 4.47-.63 1.99-1.67 3.49-1.04 1.5-2.41 2.56-1.37 1.06-2.88 1.73-1.5.66-3.04.98-1.54.31-2.91.31h-17.41v-9.64h17.41q1.97 0 2.93-1.01.97-1 .97-2.89v-30.47q0-1.89-.97-2.87-.96-.99-2.93-.99h-17.41q-1.78 0-2.82 1.1-1.03 1.09-1.03 2.76v13.07q0 1.89 1 2.89 1 1 2.93 1h17.33v9.65h-17.41q-1.37 0-2.89-.32-1.52-.31-3.02-.98-1.51-.67-2.88-1.72-1.37-1.06-2.41-2.56-1.04-1.51-1.67-3.49-.63-1.99-.63-4.47zm52.47.25v-13.54q0-2 .7-4.32.71-2.32 2.29-4.31 1.57-1.98 4.12-3.32 2.54-1.34 6.17-1.34h17.41q2 0 4.32.71 2.32.7 4.31 2.28 1.98 1.58 3.32 4.12 1.33 2.54 1.33 6.18 0 2-.7 4.32-.71 2.32-2.28 4.31-1.58 1.98-4.12 3.32-2.54 1.34-6.18 1.34h-17.41v-9.17h17.41q1.97 0 3.04-1.21 1.08-1.2 1.08-2.98 0-1.9-1.21-2.97-1.2-1.08-2.91-1.08h-17.41q-1.96 0-3.04 1.21-1.07 1.2-1.07 2.98v13.47q0 1.93 1.2 3.01 1.21 1.08 2.99 1.08h17.33v9.2h-17.41q-2 0-4.32-.71-2.32-.7-4.3-2.28-1.99-1.57-3.32-4.12-1.34-2.54-1.34-6.18zm60.34-17.18h-12.54v-9.65h12.54v-13.09h9.76v13.09h16.85v9.65h-16.85v30.47h-9.76z" fill="#6bc9c5" transform="matrix(1.96927803 0 0 1.96927803 139.3729636625 871.03068172505)"/></svg>